<svg xmlns="http://www.w3.org/2000/svg" viewBox="0 0 100 100" role="img" aria-label="Novitium Energy mark">
  <g fill="#f5912a" transform="rotate(7 50 50)">
    <path d="M41 44 L50 4 L59 44 Z"/>
    <path d="M44 46 L50 24 L56 46 Z" transform="rotate(30 50 50)"/>
    <path d="M41 44 L50 4 L59 44 Z" transform="rotate(60 50 50)"/>
    <path d="M44 46 L50 24 L56 46 Z" transform="rotate(90 50 50)"/>
    <path d="M41 44 L50 4 L59 44 Z" transform="rotate(120 50 50)"/>
    <path d="M44 46 L50 24 L56 46 Z" transform="rotate(150 50 50)"/>
    <path d="M41 44 L50 4 L59 44 Z" transform="rotate(180 50 50)"/>
    <path d="M44 46 L50 24 L56 46 Z" transform="rotate(210 50 50)"/>
    <path d="M41 44 L50 4 L59 44 Z" transform="rotate(240 50 50)"/>
    <path d="M44 46 L50 24 L56 46 Z" transform="rotate(270 50 50)"/>
    <path d="M41 44 L50 4 L59 44 Z" transform="rotate(300 50 50)"/>
    <path d="M44 46 L50 24 L56 46 Z" transform="rotate(330 50 50)"/>
  </g>
</svg>
